<?xml version="1.0" encoding="UTF-8"?>
<svg width="374px" height="96px" viewBox="0 0 374 96" version="1.1" xmlns="http://www.w3.org/2000/svg" xmlns:xlink="http://www.w3.org/1999/xlink">
    <title>LOGO/normal</title>
    <g id="LOGO" stroke="none" stroke-width="1" fill="none" fill-rule="evenodd">
        <g id="Skynet_2" transform="translate(-285.000000, -492.000000)">
            <g id="LOGO/normal" transform="translate(285.000000, 492.000000)">
                <g id="LOGO/symbol" fill="#00C65E">
                    <path d="M7.10542736e-14,21.0279239 L104.14462,76.0331997 C106.875861,77.4620805 107.373979,81.1612451 105.117851,83.2616556 L105.117851,83.2616556 L105.064766,83.2616556 C101.792939,86.225588 98.1344729,88.7329863 94.1893462,90.7148395 C60.5350004,107.626949 21.1943282,81.7655334 23.3752515,44.1642913 L23.3752515,44.1642913 L37.3013098,53.7815882 C41.4693949,75.731498 64.6588477,88.3976638 85.3789467,80.0411441 L85.3789467,80.0411441 L7.10542736e-14,21.0279239 Z M42.1055344,36.3695916 L112.054338,64.0182143 C114.082198,64.8144946 115.176641,67.0175369 114.58474,69.1144084 L114.58474,69.1144084 L114.58474,69.202884 C113.836236,71.8208768 110.85107,73.0674979 108.462229,71.7598286 L108.462229,71.7598286 L42.1055344,36.3695916 Z M67.8607794,0.15653164 C81.0524902,-0.975955943 97.5354931,3.98752479 107.356284,16.6483821 C115.628752,27.3362336 117.336331,40.3952311 116.752392,53.8789114 L116.752392,53.8789114 L116.752392,53.8435211 C116.519701,56.703937 113.590274,58.5256495 110.92185,57.4710204 L110.92185,57.4710204 L63.3750669,38.6788046 L107.51554,50.5168389 C108.272891,42.740719 106.44587,34.9318633 102.316714,28.2988481 C87.8642261,5.08462214 53.7011456,6.22064875 40.8226384,30.3444038 C40.0847519,31.7343553 39.4379953,33.1703142 38.8850229,34.6443176 L38.8850229,34.6443176 L27.0469886,28.3360078 C27.3831959,27.8405445 27.7370982,27.3716239 28.0910006,26.8938557 C28.6572444,25.7171303 29.267726,24.5227098 29.9401405,23.354832 C37.7879255,9.76498098 50.926551,1.76678742 64.7818288,0.483891332 C65.8081457,0.39541574 66.8344625,0.245007233 67.8607794,0.15653164 Z"></path>
                </g>
                <g id="LOGO/font" transform="translate(151.000000, 11.000000)" fill="#0D0D0D" fill-rule="nonzero">
                    <path d="M21.018,61.178 C24.738,61.178 27.9723333,60.5786667 30.721,59.38 C33.4696667,58.1813333 35.588,56.497 37.076,54.327 C38.564,52.157 39.308,49.646 39.308,46.794 C39.308,44.1073333 38.6363333,41.8133333 37.293,39.912 C35.9496667,38.0106667 34.0586667,36.502 31.62,35.386 C29.1813333,34.27 26.35,33.588 23.126,33.34 L23.126,33.34 L19.158,32.968 C16.926,32.8026667 15.2933333,32.193 14.26,31.139 C13.2266667,30.085 12.71,28.8553333 12.71,27.45 C12.71,26.2926667 12.9993333,25.218 13.578,24.226 C14.1566667,23.234 15.0246667,22.4486667 16.182,21.87 C17.3393333,21.2913333 18.786,21.002 20.522,21.002 C22.3406667,21.002 23.839,21.3223333 25.017,21.963 C26.195,22.6036667 27.0836667,23.451 27.683,24.505 C28.2823333,25.559 28.582,26.706 28.582,27.946 L28.582,27.946 L37.2,27.946 C37.2,25.0113333 36.518,22.459 35.154,20.289 C33.79,18.119 31.868,16.4346667 29.388,15.236 C26.908,14.0373333 23.9526667,13.438 20.522,13.438 C17.2153333,13.438 14.3323333,14.0063333 11.873,15.143 C9.41366667,16.2796667 7.502,17.8916667 6.138,19.979 C4.774,22.0663333 4.092,24.5566667 4.092,27.45 C4.092,31.294 5.38366667,34.3836667 7.967,36.719 C10.5503333,39.0543333 14.012,40.408 18.352,40.78 L18.352,40.78 L22.32,41.09 C25.172,41.338 27.28,41.9476667 28.644,42.919 C30.008,43.8903333 30.69,45.182 30.69,46.794 C30.69,48.0753333 30.3386667,49.2223333 29.636,50.235 C28.9333333,51.2476667 27.8586667,52.064 26.412,52.684 C24.9653333,53.304 23.1673333,53.614 21.018,53.614 C18.6206667,53.614 16.6883333,53.2626667 15.221,52.56 C13.7536667,51.8573333 12.6893333,50.9376667 12.028,49.801 C11.3666667,48.6643333 11.036,47.4966667 11.036,46.298 L11.036,46.298 L2.418,46.298 C2.418,49.15 3.14133333,51.7023333 4.588,53.955 C6.03466667,56.2076667 8.13233333,57.9746667 10.881,59.256 C13.6296667,60.5373333 17.0086667,61.178 21.018,61.178 Z M55.804,60 L55.803,44.252 L59.462,44.252 L70.746,60 L80.48,60 L66.302,40.687 L77.752,26.334 L68.762,26.334 L55.803,42.547 L55.804,14.74 L47.186,14.74 L47.186,60 L55.804,60 Z M89.908,73.268 C92.6773333,73.268 95.0023333,72.9373333 96.883,72.276 C98.7636667,71.6146667 100.303333,70.5296667 101.502,69.021 C102.700667,67.5123333 103.630667,65.518 104.292,63.038 L104.292,63.038 L114.274,26.334 L106.028,26.334 L99.247,52.436 L97.931,52.436 L89.722,26.334 L81.042,26.334 L91.954,59.256 L97.475,59.256 L96.976,61.178 C96.7156,62.2196 96.35476,63.07706 95.89348,63.75038 L95.736,63.968 C95.1986667,64.6706667 94.527,65.1666667 93.721,65.456 C92.915,65.7453333 91.9126667,65.89 90.714,65.89 L90.714,65.89 L84.39,65.89 L84.39,73.268 L89.908,73.268 Z M129.344,60 L129.344,40.222 C129.344,38.0313333 129.995,36.285 131.297,34.983 C132.599,33.681 134.304,33.03 136.412,33.03 C138.478667,33.03 140.101,33.6706667 141.279,34.952 C142.457,36.2333333 143.046,37.9073333 143.046,39.974 L143.046,39.974 L143.046,60 L151.664,60 L151.664,40.718 C151.664,35.5926667 150.630667,31.7383333 148.564,29.155 C146.497333,26.5716667 143.459333,25.28 139.45,25.28 L139.45,25.28 L139.078,25.28 C136.391333,25.28 134.149,25.8586667 132.351,27.016 C130.553,28.1733333 129.199333,29.899 128.29,32.193 C128.037407,32.8302222 127.819897,33.5112973 127.637469,34.2362253 L127.546,34.618 L127.546,26.334 L120.726,26.334 L120.726,60 L129.344,60 Z M176.468,61.178 C179.237333,61.178 181.707,60.7026667 183.877,59.752 C186.047,58.8013333 187.834667,57.458 189.24,55.722 C190.645333,53.986 191.596,51.9606667 192.092,49.646 L192.092,49.646 L184.156,49.646 C183.784,50.886 182.936667,51.9296667 181.614,52.777 C180.291333,53.6243333 178.576,54.048 176.468,54.048 C174.36,54.048 172.624,53.583 171.26,52.653 C169.896,51.723 168.883333,50.4416667 168.222,48.809 C167.815026,47.8042821 167.533274,46.7095602 167.376746,45.5248343 L167.343,45.244 L192.65,45.244 L192.65,42.144 C192.65,39.168 192.03,36.3883333 190.79,33.805 C189.55,31.2216667 187.700333,29.1343333 185.241,27.543 C182.781667,25.9516667 179.733333,25.156 176.096,25.156 C173.326667,25.156 170.888,25.6416667 168.78,26.613 C166.672,27.5843333 164.905,28.8863333 163.479,30.519 C162.053,32.1516667 160.978333,34.0116667 160.255,36.099 C159.531667,38.1863333 159.17,40.346 159.17,42.578 L159.17,42.578 L159.17,43.756 C159.17,45.9053333 159.531667,48.0133333 160.255,50.08 C160.978333,52.1466667 162.053,54.017 163.479,55.691 C164.905,57.365 166.703,58.698 168.873,59.69 C171.043,60.682 173.574667,61.178 176.468,61.178 Z M184.417,39.975 L167.495,39.975 L167.564041,39.6146531 C167.703224,38.9334966 167.885903,38.293199 168.112077,37.6937602 L168.253,37.339 C168.935,35.7063333 169.937333,34.456 171.26,33.588 C172.582667,32.72 174.194667,32.286 176.096,32.286 C177.997333,32.286 179.578333,32.6993333 180.839,33.526 C182.099667,34.3526667 183.04,35.5306667 183.66,37.06 C183.97,37.8246667 184.2025,38.6668333 184.3575,39.5865 L184.417,39.975 Z M219.81,60.434 L219.81,53.056 L214.54,53.056 C212.886667,53.056 211.615667,52.6116667 210.727,51.723 C209.838333,50.8343333 209.394,49.5633333 209.394,47.91 L209.394,47.91 L209.424,32.658 L219.81,32.658 L219.81,26.334 L209.437,26.334 L209.456,16.848 L201.396,16.848 L201.377,26.334 L196.002,26.334 L196.002,32.658 L201.364,32.658 L201.334,47.352 C201.334,50.4540667 201.78164,52.9499542 202.67692,54.8396625 L202.822,55.133 C203.814,57.055 205.312333,58.419 207.317,59.225 C209.321667,60.031 211.874,60.434 214.974,60.434 L214.974,60.434 L219.81,60.434 Z" id="Skynet"></path>
                </g>
            </g>
        </g>
    </g>
</svg>