<?xml version="1.0" encoding="UTF-8"?>
<svg width="351px" height="288px" viewBox="0 0 351 288" version="1.1" xmlns="http://www.w3.org/2000/svg" xmlns:xlink="http://www.w3.org/1999/xlink">
    <title>LOGO/symbol</title>
    <g id="LOGO" stroke="none" stroke-width="1" fill="none" fill-rule="evenodd">
        <g id="Skynet_1" transform="translate(-747.000000, -396.000000)" fill="#00C65E">
            <g id="LOGO/symbol" transform="translate(747.000000, 396.000000)">
                <path d="M2.13162821e-13,63.0837717 L312.43386,228.099599 C320.627584,232.386242 322.121937,243.483735 315.353554,249.784967 L315.353554,249.784967 L315.194298,249.784967 C305.378816,258.676764 294.403419,266.198959 282.568039,272.144519 C181.605001,322.880847 63.5829845,245.2966 70.1257546,132.492874 L70.1257546,132.492874 L111.903929,161.344765 C124.408185,227.194494 193.976543,265.192991 256.13684,240.123432 L256.13684,240.123432 L2.13162821e-13,63.0837717 Z M126.316603,109.108775 L336.163014,192.054643 C342.246595,194.443484 345.529924,201.052611 343.754219,207.343225 L343.754219,207.343225 L343.754219,207.608652 C341.508709,215.46263 332.553209,219.202494 325.386686,215.279486 L325.386686,215.279486 L126.316603,109.108775 Z M203.582338,0.46959492 C243.157471,-2.92786783 292.606479,11.9625744 322.068852,49.9451462 C346.886255,82.0087009 352.008992,121.185693 350.257175,161.636734 L350.257175,161.636734 L350.257175,161.530563 C349.559103,170.111811 340.770822,175.576948 332.765551,172.413061 L332.765551,172.413061 L190.125201,116.036414 L322.54662,151.550517 C324.818673,128.222157 319.33761,104.79559 306.950142,84.8965443 C263.592678,15.2538664 161.103437,18.6619462 122.467915,91.0332114 C120.254256,95.203066 118.313986,99.5109426 116.655069,103.932953 L116.655069,103.932953 L81.1409658,85.0080235 C82.1495876,83.5216336 83.2112947,82.1148716 84.2730018,80.681567 C85.9717332,77.1513909 87.803178,73.5681294 89.8204215,70.0644959 C113.363777,29.2949429 152.779653,5.30036227 194.345486,1.451674 C197.424437,1.18624722 200.503388,0.735021698 203.582338,0.46959492 Z"></path>
            </g>
        </g>
    </g>
</svg>